<?xml version="1.0" encoding="UTF-8"?>
<svg id="Camada_2" data-name="Camada 2" xmlns="http://www.w3.org/2000/svg" viewBox="0 0 500 500">
  <defs>
    <style>
      .cls-1 {
        fill: #89532f;
      }
    </style>
  </defs>
  <path class="cls-1" d="M412.07,88.07c18.95,19.86-4.37,52.1,0,131.34,2.55,43.72,11.48,67.22,3.64,70.86-12.93,6.01-33.52-56.47-95.46-85.98-43.54-20.77-60.66-2.91-113.86-19.67-66.13-20.95-124.6-75.6-116.4-96.55,9.47-23.68,92.36,22.41,233.72,0,42.81-6.74,72.32-16.94,88.35,0Z"/>
  <path class="cls-1" d="M308.6,244.91c18.03,13.12,32.06,23.32,47.73,38.44,17.31,16.94,39.17,39.71,50.1,60.48,8.93,17.49,24.96,51.74,13.3,65.03-9.29,10.57-24.05,14.57-54.1,11.11-35.34-3.82-64.67-2.01-83.62,0-4.01-31.33-9.47-57.2-14.03-76.15-6.92-28.6-10.56-42.99-18.58-59.38-20.04-40.44-45.72-52.1-40.81-60.3,8.01-13.66,61.94-6.92,100.01,20.77Z"/>
  <path class="cls-1" d="M80.71,131.06c8.56-3.28,24.77,21.5,55.93,69.77,107.66,167.41,120.78,193.1,109.48,208.04-10.2,13.48-41.54,12.03-104.38,9.47-21.68-1.09-39.9-3.1-52.83-4.74,2.55-34.61,4.55-85.44,0-146.46-6.01-79.97-19.86-131.71-8.2-136.08Z"/>
</svg>