<?xml version="1.0" encoding="UTF-8"?>
<svg id="Camada_2" data-name="Camada 2" xmlns="http://www.w3.org/2000/svg" viewBox="0 0 500 500">
  <defs>
    <style>
      .cls-1 {
        fill: #c48b34;
      }
    </style>
  </defs>
  <path class="cls-1" d="M441.37,247.1c-1.82,45.45-2.47,91-2.14,136.45.11,17.26,5.47,39.55-10.4,51.56-11.57,8.68-28.3,9.54-42.12,10.72-21.54,1.82-43.09.32-64.63.21-37.41-.21-74.71-3.22-112.01-4.61-30.76-1.07-61.31-3.22-92.07-2.47-15.76.32-34.3,7.29-44.59-9-13.83-21.87-14.68-49.84-15.54-74.92-.97-30.33,0-60.56,1.71-90.89,3.11-53.06,8.04-106.22,5.79-159.49-.64-15.01-7.72-35.37,7.93-44.48,9.23-5.42,17.1-5.86,26.77-6.12,13.02-.34,26.05-.77,39.08-.78,73.36-.04,146.23,3.3,219.58,2.39,19.4-.32,42.87-4.39,61.63,1.18,19.51,5.79,21.33,23.47,21.54,44.59.21,16.61.43,33.33.54,49.95.21,31.94.11,63.78-1.07,95.72ZM96.98,343.46c13.18,8.36,47.16-15.97,101.72-72.99-7.93,5.57-19.19,12-33.76,16.4-25.01,7.5-47.19,4.88-60.84,1.82-4.01-.9-8.05,1.66-9.01,5.66-6.64,27.81-6.01,44.19,1.89,49.12ZM208.67,80.75c-54.34-5.15-88.75-17.58-103,0-10.72,13.18,2.25,28.08,4.5,70.21,3.54,63.99-23.04,88.64-9.11,104.93,19.19,22.19,89.6-.11,136.87-32.91,58.41-40.57,84.38-99.43,95.88-135.24,1.73-5.38-2.9-10.58-8.5-9.81-46.81,6.46-86.19,5.69-116.64,2.82ZM396.56,102.52c0-7.15-8.84-10.42-13.49-4.99-34.51,40.36-72.82,82.18-115.13,124.6-57.75,57.96-114.46,108.66-168.2,152.83-1.77,1.45-2.76,3.59-2.76,5.87v26.12c0,3.56,2.44,6.61,5.89,7.48,15.67,3.95,36.22,6.15,56.6-1.62,35.8-13.72,51.88-50.91,57.66-63.02,19.62-41.04,64.53-98.35,175.83-169.22,2.21-1.4,3.6-3.86,3.6-6.47v-71.58ZM341.04,268.35c.52-6.74-7.2-10.83-12.43-6.55-12.95,10.61-28.79,24.42-45.98,41.47-9.54,9.54-36.66,36.55-32.58,41.8,3.43,4.5,24.87-14.04,57.13-15.33,11.89-.51,22.64,1.46,31.87,4.33,6.04,1.88,11.43-4.03,9.3-9.99-1.76-4.95-3.36-10.39-4.63-16.31-3.24-14.83-3.54-28.29-2.68-39.42ZM362.91,307.77c2.68,23.42,11.88,41.89,20.46,54.66,4.14,6.16,13.74,3.38,14.04-4.04,1.88-45.75,3.77-91.5,5.65-137.24.31-7.53-9.31-11.03-13.8-4.97-13.75,18.57-31.14,50.9-26.35,91.6ZM341.9,359.86c-46.13-16.03-102.15,1.36-142.14,44.77-4.58,4.97-.85,13.08,5.91,12.92,61.46-1.47,122.86-2.94,184.32-4.4,6.17-.15,9.75-7.19,6.07-12.14-10.33-13.89-27.84-32.02-54.16-41.14Z"/>
</svg>