<?xml version="1.0" encoding="UTF-8"?>
<svg id="Camada_2" data-name="Camada 2" xmlns="http://www.w3.org/2000/svg" viewBox="0 0 500 500">
  <defs>
    <style>
      .cls-1 {
        fill: #c48b34;
      }
    </style>
  </defs>
  <path class="cls-1" d="M252.91,58.63c-45.5,1.73-91,2.52-136.5,2.05-17.32-.16-39.52-5.35-51.48,10.39-8.82,11.65-9.6,28.34-10.71,42.19-1.89,21.57-.47,43.14-.32,64.71.32,37.31,3.15,74.63,4.57,112.1,1.1,30.7,3.31,61.25,2.52,91.95-.32,15.74-7.24,34.48,8.97,44.71,21.88,13.7,49.91,14.64,74.94,15.43,30.39,1.1,60.61,0,91-1.73,53.06-2.99,106.27-8.03,159.49-5.67,14.96.63,35.42,7.71,44.56-7.87,6.14-10.39,5.83-19.21,6.14-30.7.79-24.4.79-48.96.47-73.53-.79-60.61-2.99-120.91-2.2-181.37.31-19.37,4.41-42.98-1.1-61.72-5.83-19.52-23.46-21.26-44.56-21.57-16.69-.16-33.38-.31-50.07-.47-31.96-.32-63.76-.16-95.73,1.1ZM161.43,390.21c-18.74-.95-34.48-2.68-45.66-4.09,2.2-29.91,3.94-73.84,0-126.58-5.19-69.12-17.16-113.83-7.08-117.61,7.4-2.83,21.41,18.58,48.33,60.3,93.05,144.69,104.38,166.89,94.62,179.8-8.82,11.65-35.9,10.39-90.21,8.19ZM390.2,325.81c7.71,15.12,21.57,44.71,11.49,56.21-8.03,9.13-20.78,12.6-46.76,9.6-30.54-3.31-55.89-1.73-72.27,0-3.46-27.08-8.19-49.44-12.12-65.81-5.98-24.72-9.13-37.15-16.06-51.33-17.32-34.95-39.52-45.03-35.27-52.11,6.93-11.81,53.53-5.98,86.44,17.95,15.59,11.34,27.71,20.15,41.25,33.22,14.96,14.64,33.85,34.32,43.3,52.27ZM395.08,104.77c16.37,17.16-3.78,45.03,0,113.52,2.2,37.78,9.92,58.1,3.15,61.24-11.18,5.2-28.97-48.81-82.5-74.31-37.63-17.95-52.43-2.52-98.4-17.01-57.15-18.1-107.69-65.34-100.6-83.44,8.19-20.47,79.82,19.37,202,0,37-5.83,62.5-14.64,76.36,0Z"/>
</svg>