<?xml version="1.0" encoding="UTF-8"?>
<svg id="Camada_2" data-name="Camada 2" xmlns="http://www.w3.org/2000/svg" viewBox="0 0 500 500">
  <defs>
    <style>
      .cls-1 {
        fill: #c48b34;
      }
    </style>
  </defs>
  <path class="cls-1" d="M58.63,252.86c1.82-45.45,2.47-91,2.14-136.45-.11-17.26-5.47-39.55,10.4-51.56,11.58-8.68,28.3-9.54,42.12-10.72,21.54-1.82,43.09-.32,64.63-.21,37.41.21,74.71,3.22,112.01,4.61,30.76,1.07,61.31,3.22,92.07,2.47,15.76-.32,34.3-7.29,44.59,9,13.83,21.87,14.68,49.84,15.54,74.92.97,30.33,0,60.56-1.71,90.89-3.11,53.06-8.04,106.22-5.79,159.49.64,15.01,7.72,35.37-7.93,44.48-9.22,5.47-17.04,5.9-26.8,6.22-12.97.32-26.05.75-39.02.75-73.42,0-146.31-3.32-219.62-2.47-19.4.32-42.87,4.39-61.63-1.18-19.51-5.79-21.33-23.47-21.54-44.59-.21-16.61-.43-33.33-.54-49.95-.21-31.94-.11-63.78,1.07-95.72ZM323.6,406.56c17.69,14.04,60.88,5.04,82.96-2.79l-5.68-236.88c-.86-37.84-30.76-68.49-68.6-70.42-30.23-1.61-60.56-3.11-90.79-4.61,57.67,77.39,71.38,141.59,72.03,187.9.97,55.2-16.18,105.9,10.07,126.8ZM150.81,390.16c8.04,16.29,36.87,31.08,132.27,19.08,4.5-39.34,6.65-94.64-4.61-159.28-11.79-68.17-34.3-121.87-52.84-158.1,4.5,45.23,4.07,109.22-23.79,176-26.37,63.45-63.78,96.47-51.02,122.3ZM95.19,407.42c10.72,7.82,28.08,7.4,37.41,0,18.01-14.26-13.72-20.9,8.15-72.99,17.79-42.23,33.01-70.63,53.81-116.72,11.9-26.37,21.76-66.56,10.08-125.84-35.26-2.14-70.53-4.29-105.79-6.43,4.72,31.94,9.11,77.71,5.47,132.27-6.86,102.25-37.41,169.35-9.11,189.72Z"/>
</svg>