<svg version="1.2" xmlns="http://www.w3.org/2000/svg" viewBox="0 0 220 68" width="220" height="68">
	<style>
		.s0 { fill: #ffffff } 
	</style>
	<g>
		<path class="s0" d="m147.15 45.62l-3.34 7.8q-0.06 0.13-0.15 0.19-0.09 0.06-0.22 0.06-0.21 0-0.3-0.1-0.1-0.09-0.1-0.24 0-0.06 0.01-0.15l3.63-8.35q0.06-0.14 0.16-0.2 0.1-0.06 0.24-0.06 0.15 0 0.25 0.07 0.1 0.07 0.16 0.19l3.62 8.31q0.03 0.07 0.03 0.16 0 0.18-0.12 0.28-0.12 0.1-0.29 0.1-0.14 0-0.24-0.07-0.1-0.07-0.16-0.19l-3.42-7.86c0 0 0.25 0.06 0.24 0.06zm-2.54 5.43l0.34-0.76h4.26l0.16 0.76c0 0-4.77 0-4.76 0z"/>
		<path class="s0" d="m153.02 53.67q-0.19 0-0.31-0.12-0.12-0.12-0.12-0.27v-5.79q0-0.15 0.12-0.27 0.12-0.12 0.3-0.12 0.18 0 0.3 0.12 0.12 0.12 0.12 0.27v1.94l-0.21 0.04q0.05-0.45 0.24-0.9 0.2-0.45 0.54-0.82 0.34-0.37 0.82-0.61 0.48-0.23 1.06-0.23 0.25 0 0.48 0.1 0.24 0.09 0.23 0.32 0 0.2-0.11 0.3-0.11 0.1-0.26 0.1-0.12 0-0.27-0.06-0.14-0.06-0.38-0.06-0.38 0-0.77 0.21-0.39 0.21-0.7 0.58-0.32 0.36-0.5 0.81-0.18 0.45-0.19 0.9v3.19q0 0.15-0.12 0.27-0.12 0.12-0.29 0.12z"/>
		<path class="s0" d="m163.66 47.03q0.18 0 0.3 0.12 0.12 0.12 0.12 0.28v8.43q0 0.15-0.12 0.27-0.12 0.12-0.29 0.12-0.19 0-0.3-0.12-0.11-0.12-0.11-0.27v-4.12l0.23-0.18q0 0.38-0.21 0.77-0.21 0.39-0.58 0.72-0.38 0.33-0.88 0.54-0.5 0.21-1.08 0.21-0.92 0-1.66-0.45-0.74-0.45-1.16-1.23-0.42-0.78-0.43-1.77 0-0.98 0.43-1.77 0.42-0.78 1.16-1.23 0.72-0.45 1.64-0.45 0.58 0 1.09 0.19 0.51 0.2 0.9 0.53 0.39 0.33 0.62 0.77 0.23 0.43 0.23 0.9l-0.29-0.19v-1.67q0-0.17 0.11-0.28 0.11-0.12 0.3-0.12zm-2.86 6.04q0.75 0 1.3-0.36 0.55-0.36 0.88-0.97 0.32-0.62 0.32-1.4 0-0.78-0.32-1.39-0.32-0.62-0.89-0.96-0.57-0.35-1.29-0.35-0.71 0-1.29 0.35-0.57 0.34-0.89 0.96-0.32 0.61-0.32 1.39 0 0.77 0.32 1.4 0.33 0.62 0.89 0.98 0.57 0.36 1.29 0.35z"/>
		<path class="s0" d="m171.49 47.1q0.18 0 0.3 0.12 0.12 0.12 0.12 0.27v3.65q0 1.28-0.77 1.95-0.77 0.67-2.08 0.67-1.3 0-2.07-0.67-0.76-0.68-0.76-1.95v-3.65q0-0.15 0.12-0.27 0.12-0.12 0.3-0.12 0.18 0 0.3 0.12 0.12 0.12 0.12 0.27v3.65q0 0.93 0.53 1.42 0.53 0.48 1.46 0.48 0.94 0 1.48-0.48 0.53-0.48 0.53-1.42v-3.65q0-0.15 0.12-0.27 0.12-0.12 0.31-0.12z"/>
		<path class="s0" d="m174.44 46.08q-0.29 0-0.43-0.12-0.15-0.12-0.14-0.36v-0.13q0-0.22 0.16-0.36 0.16-0.12 0.43-0.12 0.27 0 0.41 0.12 0.15 0.12 0.14 0.36v0.13q0 0.23-0.14 0.36-0.15 0.12-0.42 0.12zm0.41 7.2q0 0.15-0.12 0.27-0.12 0.12-0.29 0.12-0.19 0-0.3-0.12-0.11-0.12-0.11-0.27v-5.95q0-0.15 0.12-0.27 0.12-0.12 0.3-0.12 0.18 0 0.3 0.12 0.12 0.12 0.12 0.27v5.95z"/>
		<path class="s0" d="m176.54 47.09h3.2q0.16 0 0.28 0.11 0.11 0.11 0.11 0.27 0 0.16-0.11 0.26-0.1 0.1-0.28 0.1h-3.2q-0.16 0-0.28-0.11-0.12-0.11-0.12-0.26 0-0.15 0.12-0.26 0.12-0.1 0.28-0.11zm1.42-1.83q0.18 0 0.3 0.12 0.12 0.12 0.12 0.27v6.49q0 0.36 0.1 0.54 0.11 0.18 0.27 0.24 0.17 0.06 0.33 0.06 0.11 0 0.2-0.03 0.09-0.03 0.2-0.03 0.12 0 0.21 0.09 0.09 0.09 0.09 0.23 0 0.18-0.22 0.3-0.22 0.12-0.52 0.12-0.13 0.01-0.37-0.02-0.24-0.02-0.51-0.14-0.27-0.12-0.44-0.43-0.18-0.3-0.18-0.89v-6.53q0-0.15 0.12-0.27 0.12-0.12 0.3-0.12z"/>
		<path class="s0" d="m184.83 53.79q-1.06 0-1.87-0.43-0.81-0.42-1.26-1.19-0.45-0.76-0.45-1.78 0-1.1 0.46-1.88 0.46-0.78 1.2-1.2 0.73-0.42 1.56-0.42 0.6 0 1.18 0.2 0.57 0.2 1.02 0.6 0.45 0.39 0.72 0.96 0.27 0.57 0.3 1.32-0.01 0.15-0.14 0.26-0.12 0.11-0.29 0.11h-5.51l-0.17-0.7h5.42l-0.18 0.16v-0.26q-0.07-0.6-0.43-1.03-0.36-0.42-0.86-0.65-0.5-0.23-1.05-0.23-0.42 0-0.85 0.15-0.44 0.16-0.78 0.49-0.35 0.33-0.57 0.84-0.22 0.51-0.22 1.21 0 0.77 0.33 1.38 0.33 0.62 0.96 0.98 0.62 0.36 1.49 0.36 0.48 0 0.86-0.13 0.38-0.13 0.67-0.34 0.3-0.21 0.49-0.45 0.15-0.12 0.29-0.12 0.15 0.01 0.26 0.1 0.1 0.11 0.1 0.23 0 0.15-0.14 0.27-0.41 0.47-1.07 0.81-0.66 0.34-1.44 0.34z"/>
		<path class="s0" d="m188.97 47.09h3.2q0.16 0 0.28 0.11 0.11 0.11 0.11 0.27 0 0.16-0.11 0.26-0.1 0.1-0.28 0.1h-3.2q-0.16 0-0.28-0.11-0.12-0.11-0.12-0.26 0-0.15 0.12-0.26 0.12-0.1 0.28-0.11zm1.42-1.83q0.18 0 0.3 0.12 0.12 0.12 0.12 0.27v6.49q0 0.36 0.1 0.54 0.11 0.18 0.27 0.24 0.17 0.06 0.33 0.06 0.11 0 0.2-0.03 0.09-0.03 0.2-0.03 0.12 0 0.21 0.09 0.09 0.09 0.09 0.23 0 0.18-0.22 0.3-0.22 0.12-0.52 0.12-0.13 0.01-0.37-0.02-0.24-0.02-0.51-0.14-0.27-0.12-0.44-0.43-0.18-0.3-0.18-0.89v-6.53q0-0.15 0.12-0.27 0.12-0.12 0.3-0.12z"/>
		<path class="s0" d="m199.34 47.1q0.18 0 0.3 0.12 0.12 0.12 0.12 0.27v3.65q0 1.28-0.77 1.95-0.77 0.67-2.08 0.67-1.3 0-2.07-0.67-0.76-0.68-0.76-1.95v-3.65q0-0.15 0.12-0.27 0.12-0.12 0.3-0.12 0.18 0 0.3 0.12 0.12 0.12 0.12 0.27v3.65q0 0.93 0.53 1.42 0.53 0.48 1.46 0.48 0.94 0 1.48-0.48 0.53-0.48 0.53-1.42v-3.65q0-0.15 0.12-0.27 0.12-0.12 0.31-0.12z"/>
		<path class="s0" d="m202.32 53.67q-0.19 0-0.31-0.12-0.12-0.12-0.12-0.27v-5.79q0-0.15 0.12-0.27 0.12-0.12 0.3-0.12 0.18 0 0.3 0.12 0.12 0.12 0.12 0.27v1.94l-0.21 0.04q0.05-0.45 0.24-0.9 0.2-0.45 0.54-0.82 0.34-0.37 0.82-0.61 0.48-0.23 1.06-0.23 0.25 0 0.48 0.1 0.24 0.09 0.23 0.32 0 0.2-0.11 0.3-0.11 0.1-0.26 0.1-0.12 0-0.27-0.06-0.14-0.06-0.38-0.06-0.38 0-0.77 0.21-0.39 0.21-0.7 0.58-0.32 0.36-0.5 0.81-0.18 0.45-0.19 0.9v3.19q0 0.15-0.12 0.27-0.12 0.12-0.29 0.12z"/>
		<path class="s0" d="m212.96 47.06q0.18 0 0.3 0.12 0.12 0.12 0.12 0.28v5.82q0 0.15-0.12 0.27-0.12 0.12-0.29 0.12-0.2 0-0.3-0.12-0.11-0.12-0.11-0.27v-1.54l0.23-0.09q0 0.35-0.21 0.73-0.21 0.38-0.58 0.7-0.38 0.31-0.87 0.52-0.5 0.2-1.08 0.2-0.93 0-1.67-0.45-0.74-0.46-1.16-1.24-0.42-0.79-0.42-1.77c0-0.65 0.14-1.27 0.43-1.78q0.42-0.77 1.16-1.21 0.72-0.44 1.64-0.44 0.58 0 1.11 0.19 0.52 0.2 0.9 0.53 0.39 0.33 0.61 0.77 0.22 0.43 0.22 0.9l-0.29-0.19v-1.64q0-0.17 0.11-0.28 0.11-0.12 0.3-0.12zm-2.86 6.01q0.74 0 1.29-0.36 0.57-0.36 0.89-0.98 0.33-0.63 0.32-1.4 0-0.76-0.32-1.36-0.32-0.61-0.89-0.97-0.57-0.36-1.29-0.36-0.71 0-1.29 0.34-0.57 0.34-0.89 0.95-0.33 0.6-0.32 1.4 0 0.78 0.32 1.4 0.33 0.63 0.89 0.98 0.57 0.36 1.29 0.36z"/>
		<path class="s0" d="m146.38 67.09q-0.98 0-1.73-0.43-0.76-0.42-1.18-1.1-0.42-0.67-0.42-1.42 0-0.57 0.24-1.09 0.24-0.53 0.73-0.95 0.49-0.43 1.24-0.67l0.59 0.57q-1.08 0.22-1.51 0.79-0.44 0.57-0.44 1.25 0 0.58 0.29 1.11 0.29 0.53 0.87 0.86 0.58 0.33 1.42 0.34 0.9 0 1.53-0.28 0.64-0.27 1.07-0.74 0.43-0.46 0.7-1.03 0.26-0.57 0.38-1.17 0.03-0.13 0.12-0.2 0.09-0.07 0.26-0.07 0.19 0 0.3 0.13 0.11 0.13 0.08 0.32-0.12 0.7-0.45 1.37-0.33 0.68-0.89 1.22-0.57 0.56-1.36 0.87-0.8 0.33-1.84 0.32zm4.88-0.16c0 0-0.09 0-0.13-0.03q-0.06-0.02-0.12-0.05-0.84-0.62-1.62-1.2-0.77-0.58-1.55-1.25-0.77-0.67-1.6-1.55-0.48-0.51-0.87-1.02-0.39-0.5-0.62-0.98-0.24-0.48-0.23-0.96-0.01-0.6 0.32-1.09 0.32-0.48 0.89-0.76 0.57-0.27 1.38-0.28 0.98 0 1.64 0.35 0.64 0.35 0.91 0.83 0 0.01 0.04 0.09 0.03 0.07 0.03 0.16 0 0.12-0.1 0.23-0.1 0.11-0.28 0.11-0.11 0-0.19-0.04-0.08-0.05-0.12-0.11-0.27-0.37-0.72-0.63-0.45-0.26-1.2-0.26-0.84 0-1.28 0.39-0.44 0.4-0.44 1.03 0 0.39 0.23 0.83 0.23 0.45 0.6 0.9 0.36 0.46 0.76 0.88 0.55 0.59 1.16 1.13 0.61 0.55 1.21 1.03 0.6 0.48 1.14 0.87 0.53 0.39 0.95 0.69 0.09 0.06 0.14 0.14 0.04 0.08 0.04 0.18 0 0.1-0.1 0.24-0.1 0.14-0.28 0.14z"/>
		<path class="s0" d="m157.89 66.56q-0.01 0.17-0.14 0.28-0.13 0.11-0.3 0.12-0.2 0-0.32-0.12-0.11-0.12-0.11-0.28v-8.25q0-0.17 0.12-0.28 0.12-0.11 0.32-0.12 0.16 0 0.3 0.12 0.13 0.12 0.13 0.28z"/>
		<path class="s0" d="m163.57 60.2q0.91 0 1.45 0.34 0.54 0.34 0.78 0.93 0.24 0.58 0.24 1.3v3.8q0 0.15-0.12 0.27-0.12 0.12-0.29 0.12-0.19 0-0.31-0.12-0.12-0.12-0.12-0.27v-3.76q0-0.52-0.18-0.94-0.18-0.42-0.58-0.68-0.4-0.25-1.06-0.25-0.59 0-1.12 0.25-0.53 0.25-0.86 0.68-0.33 0.43-0.33 0.94v3.76q0 0.15-0.12 0.27-0.12 0.12-0.29 0.12-0.19 0-0.31-0.12-0.12-0.12-0.12-0.27v-5.79q0-0.15 0.12-0.27 0.12-0.12 0.3-0.12 0.18 0 0.3 0.12 0.12 0.12 0.12 0.27v1.09l-0.32 0.47q0.03-0.42 0.28-0.8 0.26-0.38 0.65-0.69 0.39-0.31 0.89-0.48 0.48-0.18 0.98-0.17z"/>
		<path class="s0" d="m167.75 60.38h3.2q0.16 0 0.28 0.11 0.11 0.11 0.11 0.27 0 0.16-0.11 0.26-0.1 0.1-0.28 0.1h-3.2q-0.16 0-0.28-0.11-0.12-0.11-0.12-0.26 0-0.15 0.12-0.26 0.12-0.1 0.28-0.11zm1.41-1.82q0.18 0 0.3 0.12 0.12 0.12 0.12 0.27v6.49q0 0.36 0.1 0.54 0.11 0.18 0.27 0.24 0.17 0.06 0.33 0.06 0.11 0 0.2-0.03 0.09-0.03 0.2-0.03 0.12 0 0.21 0.09 0.09 0.09 0.09 0.23 0 0.18-0.22 0.3-0.22 0.12-0.52 0.12-0.13 0.01-0.37-0.02-0.24-0.02-0.51-0.14-0.27-0.12-0.44-0.43-0.18-0.3-0.18-0.89v-6.53q0-0.15 0.12-0.27 0.12-0.12 0.3-0.12z"/>
		<path class="s0" d="m176.04 67.09q-1.06 0-1.87-0.43-0.81-0.42-1.26-1.19-0.45-0.76-0.45-1.78 0-1.1 0.46-1.88 0.46-0.78 1.2-1.2 0.74-0.42 1.56-0.42 0.61 0 1.18 0.2 0.57 0.19 1.02 0.6 0.45 0.39 0.72 0.96 0.27 0.57 0.3 1.32-0.01 0.15-0.14 0.26-0.12 0.11-0.29 0.11h-5.51l-0.17-0.7h5.42l-0.18 0.16v-0.26q-0.07-0.6-0.43-1.03-0.36-0.42-0.86-0.65-0.49-0.23-1.05-0.23-0.42 0-0.85 0.15-0.44 0.16-0.78 0.49-0.35 0.33-0.57 0.84-0.22 0.51-0.22 1.21 0 0.77 0.33 1.38 0.33 0.62 0.96 0.98 0.62 0.36 1.49 0.36 0.48 0 0.86-0.13 0.38-0.13 0.67-0.34 0.3-0.21 0.49-0.45 0.15-0.12 0.29-0.12 0.15 0.01 0.26 0.1 0.1 0.11 0.1 0.23 0 0.15-0.14 0.27-0.41 0.47-1.07 0.81-0.66 0.34-1.44 0.34z"/>
		<path class="s0" d="m181.04 66.96q-0.19 0-0.31-0.12-0.12-0.12-0.12-0.27v-5.79q0-0.15 0.12-0.27 0.12-0.12 0.3-0.12 0.18 0 0.3 0.12 0.12 0.12 0.12 0.27v1.94l-0.21 0.04q0.05-0.45 0.24-0.9 0.2-0.45 0.54-0.82 0.34-0.37 0.82-0.61 0.48-0.24 1.06-0.23 0.25 0 0.48 0.1 0.24 0.09 0.23 0.32 0 0.2-0.11 0.3-0.11 0.1-0.26 0.1-0.12 0-0.27-0.06-0.14-0.06-0.38-0.06-0.38 0-0.77 0.21-0.39 0.21-0.7 0.58-0.32 0.36-0.5 0.81-0.18 0.45-0.19 0.9v3.19q0 0.15-0.12 0.27-0.12 0.12-0.29 0.12z"/>
		<path class="s0" d="m186.3 59.37q-0.29 0-0.43-0.12-0.15-0.12-0.14-0.36v-0.13q0-0.23 0.16-0.36 0.16-0.12 0.43-0.12 0.27 0 0.41 0.12 0.15 0.12 0.14 0.36v0.13q0 0.23-0.14 0.36-0.15 0.12-0.42 0.12zm0.42 7.2q0 0.15-0.12 0.27-0.12 0.12-0.29 0.12-0.19 0-0.3-0.12-0.11-0.12-0.11-0.27v-5.95q0-0.15 0.12-0.27 0.12-0.12 0.3-0.12 0.18 0 0.3 0.12 0.12 0.12 0.12 0.27v5.95z"/>
		<path class="s0" d="m195.4 63.65q0 0.99-0.45 1.76-0.45 0.78-1.24 1.23-0.78 0.45-1.79 0.45-0.99 0-1.77-0.45-0.79-0.45-1.25-1.23-0.46-0.78-0.46-1.76 0-0.99 0.46-1.77 0.46-0.78 1.25-1.23 0.79-0.45 1.77-0.45 0.98 0 1.79 0.45 0.78 0.45 1.24 1.23 0.45 0.78 0.45 1.77zm-0.82 0q-0.01-0.79-0.34-1.4-0.34-0.62-0.94-0.96-0.6-0.35-1.37-0.35-0.75 0-1.35 0.35-0.61 0.35-0.96 0.96-0.35 0.62-0.35 1.4 0 0.78 0.35 1.4 0.35 0.61 0.96 0.96 0.6 0.36 1.35 0.36 0.76 0 1.37-0.36 0.6-0.36 0.94-0.96 0.34-0.61 0.34-1.4z"/>
		<path class="s0" d="m197.58 66.96q-0.19 0-0.31-0.12-0.12-0.12-0.12-0.27v-5.79q0-0.15 0.12-0.27 0.12-0.12 0.3-0.12 0.18 0 0.3 0.12 0.12 0.12 0.12 0.27v1.94l-0.21 0.04q0.05-0.45 0.24-0.9 0.2-0.45 0.54-0.82 0.34-0.37 0.82-0.61 0.48-0.24 1.06-0.23 0.25 0 0.48 0.1 0.24 0.09 0.23 0.32 0 0.2-0.11 0.3-0.11 0.1-0.26 0.1-0.12 0-0.27-0.06-0.14-0.06-0.38-0.06-0.38 0-0.77 0.21-0.39 0.21-0.7 0.58-0.32 0.36-0.5 0.81-0.18 0.45-0.19 0.9v3.19q0 0.15-0.12 0.27-0.12 0.12-0.29 0.12z"/>
		<path class="s0" d="m205.63 67.09q-1.06 0-1.87-0.43-0.81-0.42-1.26-1.19-0.45-0.76-0.45-1.78 0-1.1 0.46-1.88 0.46-0.78 1.2-1.2 0.73-0.42 1.56-0.42 0.61 0 1.18 0.2 0.57 0.19 1.02 0.6 0.45 0.39 0.72 0.96 0.27 0.57 0.3 1.32-0.01 0.15-0.14 0.26-0.12 0.11-0.29 0.11h-5.51l-0.17-0.7h5.42l-0.18 0.16v-0.26q-0.07-0.6-0.43-1.03-0.36-0.42-0.86-0.65-0.5-0.23-1.05-0.23-0.42 0-0.85 0.15-0.44 0.16-0.78 0.49-0.35 0.33-0.57 0.84-0.22 0.51-0.22 1.21 0 0.77 0.33 1.38 0.33 0.62 0.96 0.98 0.62 0.36 1.49 0.36 0.48 0 0.86-0.13 0.38-0.13 0.67-0.34 0.3-0.21 0.49-0.45 0.15-0.12 0.29-0.12 0.15 0.01 0.26 0.1 0.1 0.11 0.1 0.23 0 0.15-0.14 0.27-0.41 0.47-1.07 0.81-0.66 0.34-1.44 0.34z"/>
		<path class="s0" d="m209.82 65.91q-0.11-0.15-0.1-0.3 0-0.15 0.17-0.24 0.11-0.09 0.25-0.08 0.15 0.01 0.27 0.13 0.37 0.46 0.9 0.73 0.52 0.28 1.26 0.28 0.39 0 0.76-0.12 0.37-0.12 0.63-0.38 0.24-0.25 0.25-0.64 0-0.39-0.25-0.64-0.25-0.24-0.64-0.39-0.39-0.15-0.84-0.25-0.47-0.12-0.9-0.26-0.44-0.14-0.78-0.38-0.35-0.22-0.54-0.55-0.2-0.33-0.2-0.79 0-0.54 0.31-0.96 0.31-0.41 0.86-0.65 0.56-0.23 1.22-0.23 0.36 0 0.76 0.08 0.41 0.09 0.78 0.28 0.38 0.2 0.69 0.53 0.12 0.12 0.12 0.27 0 0.15-0.14 0.28-0.11 0.08-0.25 0.07-0.15 0-0.24-0.11-0.33-0.35-0.78-0.52-0.45-0.17-0.98-0.17-0.4 0-0.75 0.12-0.35 0.12-0.58 0.36-0.23 0.24-0.23 0.65 0.03 0.37 0.28 0.61 0.25 0.23 0.67 0.39 0.42 0.15 0.94 0.28 0.44 0.1 0.84 0.25 0.4 0.13 0.72 0.36 0.31 0.22 0.5 0.54 0.19 0.33 0.19 0.81 0 0.57-0.34 0.98-0.33 0.42-0.9 0.63-0.56 0.22-1.25 0.22-0.73 0-1.44-0.27-0.69-0.27-1.23-0.9z"/>
	</g>
	<g>
		<path class="s0" d="m29.86 22.09c-1.27 4.1-5.96 6.66-11.74 6.66-7.78 0-13.94-4.96-13.94-13.01 0-8.05 6.01-13.1 13.89-13.1 5.11 0 9.36 2.1 11.11 5.55h3c-1.76-4.88-7.21-7.92-14.11-7.92-9.69 0-16.8 5.91-16.8 15.47 0 9.56 7.26 15.38 16.85 15.38 7.49 0 13.36-3.51 14.59-9.03z"/>
		<path class="s0" d="m51.77 7.69c-2.63 0.04-5.71 0.66-7.66 2.57-0.82 0.8-2 2.37-2.02 3.57l0.09-5.64h-2.8v22.47h2.8v-10.46c0-2.66 0.7-5.41 2.54-7.4 3.15-3.41 11.76-4.38 12.24 1.82h2.6c0.15 0-0.19-1.66-0.22-1.79-0.28-1.33-0.82-2.51-1.89-3.39-1.61-1.33-3.63-1.78-5.68-1.75z"/>
		<path class="s0" d="m75.63 23.16h2.59c0 3.59 2.38 5.73 8.24 5.73 5.86 0 8.66-1.73 8.66-4.59 0-1.18-0.47-2.18-1.71-2.78-1.14-0.5-3.42-0.82-7.36-1.14-4.3-0.36-6.84-0.86-8.35-1.77-1.4-0.86-2.07-2.37-2.07-4 0-4.05 4.25-6.78 10.78-6.78 7.26 0 10.47 2.87 10.47 8.01h-2.64c0-3.96-2.49-5.87-7.72-5.87-4.87 0-8.09 1.82-8.09 4.5 0 1.09 0.36 2.23 1.66 2.78 1.3 0.59 3.78 0.91 7.52 1.27 4.41 0.41 6.27 0.73 7.88 1.5 1.61 0.82 2.44 2.41 2.44 4.19 0 4.28-4.1 6.82-11.46 6.82-7.98 0-10.84-3.28-10.84-7.87z"/>
		<path class="s0" d="m110.4 8.18v2.18h7.2v-2.18z"/>
		<path class="s0" d="m118.29 28.11v2.14c-0.71 0.23-2.32 0.55-4.14 0.55-5.76 0-8.25-3.19-8.25-8.05v-12.38h-4.46v-2.18h3.63c0.73 0 1.03-0.32 1.09-1.4l0.1-3.69h2.44v19.52c0 3.78 1.56 6 5.66 6 1.66 0 3.32-0.32 3.93-0.51z"/>
		<path class="s0" d="m157.64 16.6c0-5.59-4.41-8.78-11.61-8.78-5.98 0-10.05 2.08-10.88 5.63h2.81c0.94-2.26 3.81-3.49 8.02-3.49 5.6 0 8.87 2.23 8.87 6.46v2.09h-11.41c-6.74 0-9.23 2.64-9.23 5.82 0 4.14 3.84 6.69 9.49 6.69 4.09 0 8.51-1.15 11.18-3.55v3.28h2.76v-14.16zm-13.43 12.29c-4.41 0-7.36-1.73-7.36-4.55 0-2.41 1.81-3.96 6.84-3.96h11.15c0 0 0.04 1.12 0.04 1.49 0 5.6-4.56 7.02-10.67 7.02z"/>
		<path class="s0" d="m164.59 8.19h2.8l-0.1 6.23h0.05c1.4-4.09 5.24-6.6 11.35-6.6 6.84 0 10.84 3.28 10.84 8.92v13.92h-2.8v-13.47c0-4.55-3.01-7.14-8.86-7.14-6.22 0-10.47 3.32-10.47 9.1v11.51h-2.8c0 0 0-22.47-0.01-22.47z"/>
		<path class="s0" d="m219.39 19.7h-20.94c0.05 5.73 3.84 9.19 9.69 9.19 4.82 0 8.24-2.18 8.61-5.69h2.64c-0.26 4.82-4.77 7.82-11.25 7.82-7.62 0-12.49-4.37-12.49-11.42 0-7.05 4.82-11.78 12.39-11.78 7.05 0 11.35 3.73 11.35 10.51 0 0 0 1.36 0 1.37zm-2.64-2.09c0-4.96-3.32-7.64-8.61-7.64-5.29 0-8.92 2.82-9.59 7.87h18.2z"/>
		<path class="s0" d="m12.65 67.37h-12.04v-2.36h12.09c8.23 0 13.68-4.54 13.68-12.56 0-8.02-5.08-12.64-12.75-12.64h-7c-1.72 0-3.11 1.39-3.11 3.11v16.72h-2.91v-22.2h13.07c9.43 0 15.65 5.46 15.65 15.01 0 9.55-6.57 14.92-16.68 14.92z"/>
		<path class="s0" d="m126.7 35.84v14.06h-0.05c-1.14-3.46-4.72-5.37-10.21-5.37-7.62 0-12.49 4.68-12.49 11.33 0 7.28 4.82 11.87 12.23 11.87 3.98 0 8.02-1.03 10.67-4.25q0.8-0.97 1.42-2.24c0.85-1.75 1.24-3.67 1.24-5.59v-19.82h-2.8zm0 20.56c0 4.91-3.73 9.1-10.16 9.1-5.91 0-9.8-3.78-9.8-9.64 0-5.28 3.94-9.1 9.9-9.1 5.96 0 10.06 3 10.06 8.55z"/>
		<g>
			<path fill-rule="evenodd" class="s0" d="m124.73 8.29h2.54v22.47h-2.54z"/>
			<path class="s0" d="m125.88 1.19h0.24c0.71 0 1.28 0.57 1.28 1.28v1.31c0 0.71-0.57 1.28-1.28 1.28h-0.24c-0.71 0-1.28-0.57-1.28-1.28v-1.3c0-0.71 0.57-1.28 1.28-1.29z"/>
		</g>
		<path class="s0" d="m58.35 53.25c0-5.59-4.41-8.78-11.61-8.78-5.98 0-10.05 2.08-10.88 5.63h2.81c0.94-2.26 3.81-3.49 8.02-3.49 5.6 0 8.87 2.23 8.87 6.46v2.09h-11.41c-6.74 0-9.23 2.64-9.23 5.82 0 4.14 3.84 6.69 9.49 6.69 4.09 0 8.51-1.15 11.18-3.55v3.28h2.76v-14.16zm-13.43 12.28c-4.41 0-7.36-1.73-7.36-4.55 0-2.41 1.81-3.96 6.84-3.96h11.15c0 0 0.04 1.12 0.04 1.49 0 5.6-4.56 7.02-10.67 7.02z"/>
		<g>
			<path fill-rule="evenodd" class="s0" d="m88.95 44.98l-11.15 21.23-1.4-2.71 9.54-18.52h3.01z"/>
			<path fill-rule="evenodd" class="s0" d="m65.21 44.98l11.53 22.48h-2.97l-11.82-22.48h3.26z"/>
		</g>
		<g>
			<path fill-rule="evenodd" class="s0" d="m66.22 8.29h2.54v22.47h-2.54z"/>
			<path class="s0" d="m67.37 1.19h0.24c0.71 0 1.28 0.57 1.28 1.28v1.3c0 0.71-0.57 1.28-1.28 1.28h-0.24c-0.71 0-1.28-0.57-1.28-1.28v-1.31c0-0.71 0.57-1.28 1.28-1.27z"/>
		</g>
		<g>
			<path fill-rule="evenodd" class="s0" d="m94.64 44.99h2.54v22.47h-2.54z"/>
			<path class="s0" d="m95.79 37.89h0.24c0.71 0 1.28 0.57 1.28 1.28v1.3c0 0.71-0.57 1.28-1.28 1.28h-0.24c-0.71 0-1.28-0.57-1.28-1.28v-1.31c0-0.71 0.57-1.28 1.28-1.28z"/>
		</g>
	</g>
</svg>