<svg version="1.2" xmlns="http://www.w3.org/2000/svg" viewBox="0 0 445 103" width="445" height="103">
	<style>
		.s0 { fill: #3d3935 } 
		.s1 { fill: #c48b34 } 
	</style>
	<g>
		<path class="s0" d="m338.8 66.63l-4.9 11.44q-0.09 0.19-0.22 0.27-0.14 0.09-0.32 0.09-0.31 0.01-0.44-0.14-0.14-0.14-0.15-0.36 0-0.08 0.02-0.22l5.32-12.23q0.08-0.21 0.23-0.3 0.16-0.09 0.35-0.09 0.22 0 0.37 0.11 0.15 0.1 0.23 0.28l5.31 12.18q0.04 0.1 0.04 0.23 0 0.26-0.17 0.41-0.18 0.15-0.43 0.15-0.19 0-0.35-0.11-0.15-0.1-0.23-0.27l-5.02-11.52c0 0 0.37 0.08 0.36 0.08zm-3.74 7.96l0.5-1.11h6.24l0.24 1.11c0 0-7 0-6.98 0z"/>
		<path class="s0" d="m347.4 78.42q-0.28 0-0.45-0.18-0.18-0.17-0.18-0.39v-8.49q0-0.22 0.18-0.4 0.17-0.17 0.44-0.17 0.26 0 0.44 0.17 0.17 0.18 0.17 0.4v2.84l-0.31 0.06q0.07-0.66 0.36-1.32 0.28-0.65 0.79-1.2 0.5-0.55 1.2-0.89 0.7-0.35 1.55-0.34 0.36 0 0.71 0.15 0.34 0.13 0.33 0.47 0 0.28-0.16 0.44-0.16 0.15-0.38 0.14-0.18 0-0.4-0.09-0.21-0.08-0.55-0.08-0.57 0-1.13 0.3-0.57 0.31-1.03 0.85-0.46 0.53-0.73 1.19-0.27 0.66-0.28 1.32v4.68q0 0.22-0.17 0.39-0.18 0.18-0.43 0.18z"/>
		<path class="s0" d="m363 68.69q0.26 0 0.44 0.17 0.17 0.17 0.17 0.41v12.36q0 0.22-0.17 0.39-0.18 0.18-0.43 0.18-0.29 0-0.44-0.18-0.16-0.17-0.16-0.39v-6.04l0.34-0.26q0 0.55-0.31 1.12-0.31 0.58-0.85 1.06-0.56 0.48-1.29 0.79-0.74 0.31-1.58 0.31-1.35 0-2.44-0.66-1.08-0.66-1.7-1.8-0.62-1.15-0.63-2.6 0-1.44 0.63-2.59 0.62-1.15 1.7-1.81 1.06-0.65 2.41-0.65 0.84-0.01 1.59 0.27 0.75 0.29 1.32 0.78 0.58 0.49 0.91 1.13 0.34 0.64 0.34 1.32l-0.43-0.28v-2.45q0.01-0.25 0.17-0.41 0.15-0.17 0.43-0.17zm-4.19 8.85q1.1 0 1.91-0.53 0.81-0.52 1.29-1.42 0.47-0.91 0.47-2.05-0.01-1.14-0.47-2.04-0.47-0.9-1.31-1.41-0.83-0.51-1.89-0.51-1.04 0-1.89 0.51-0.84 0.51-1.3 1.41-0.47 0.9-0.47 2.04 0 1.13 0.47 2.05 0.47 0.9 1.3 1.44 0.84 0.53 1.89 0.51z"/>
		<path class="s0" d="m374.46 68.79q0.26 0 0.44 0.17 0.17 0.18 0.17 0.4v5.35q0 1.87-1.13 2.86-1.12 0.98-3.04 0.98-1.92 0-3.04-0.98-1.12-0.99-1.11-2.86v-5.35q0-0.22 0.17-0.4 0.18-0.17 0.44-0.17 0.27 0 0.44 0.17 0.18 0.18 0.18 0.4v5.35q0 1.36 0.78 2.08 0.77 0.7 2.14 0.7 1.37 0 2.17-0.7 0.77-0.71 0.77-2.08v-5.35q0-0.22 0.18-0.4 0.17-0.17 0.45-0.17z"/>
		<path class="s0" d="m378.78 67.29q-0.42 0-0.63-0.17-0.21-0.18-0.2-0.53v-0.19q-0.01-0.33 0.23-0.53 0.23-0.17 0.63-0.17 0.39 0 0.6 0.17 0.21 0.18 0.21 0.53v0.19q-0.01 0.34-0.21 0.53-0.22 0.17-0.61 0.17zm0.61 10.56q0 0.22-0.17 0.39-0.18 0.18-0.43 0.18-0.28 0-0.44-0.18-0.16-0.17-0.16-0.39v-8.72q0-0.22 0.18-0.4 0.17-0.18 0.44-0.18 0.26 0 0.44 0.18 0.17 0.18 0.17 0.4v8.72z"/>
		<path class="s0" d="m381.87 68.77h4.69q0.24 0.01 0.42 0.16 0.15 0.16 0.16 0.4-0.01 0.24-0.16 0.38-0.15 0.15-0.42 0.15h-4.69q-0.23-0.01-0.41-0.16-0.17-0.16-0.17-0.38 0-0.23 0.17-0.39 0.18-0.14 0.41-0.16zm2.07-2.68q0.27 0 0.44 0.18 0.18 0.17 0.18 0.39v9.52q-0.01 0.52 0.14 0.79 0.16 0.26 0.4 0.35 0.24 0.09 0.48 0.09 0.16 0 0.3-0.05 0.13-0.04 0.29-0.04 0.18 0 0.31 0.13 0.13 0.14 0.13 0.34 0 0.26-0.32 0.44-0.33 0.17-0.77 0.17-0.18 0.01-0.54-0.03-0.35-0.03-0.75-0.2-0.38-0.18-0.64-0.63-0.26-0.44-0.26-1.31v-9.57q0-0.22 0.17-0.39 0.18-0.18 0.44-0.18z"/>
		<path class="s0" d="m394.03 78.61q-1.56 0-2.75-0.63-1.18-0.62-1.84-1.75-0.66-1.11-0.66-2.6-0.01-1.61 0.67-2.76 0.68-1.14 1.76-1.76 1.08-0.61 2.29-0.61 0.88 0 1.73 0.29 0.83 0.28 1.49 0.88 0.66 0.57 1.06 1.4 0.39 0.84 0.44 1.94-0.02 0.22-0.21 0.38-0.18 0.16-0.42 0.16h-8.08l-0.25-1.02h7.95l-0.27 0.23v-0.38q-0.1-0.89-0.63-1.51-0.53-0.62-1.26-0.95-0.72-0.34-1.54-0.34-0.61 0-1.24 0.22-0.64 0.23-1.15 0.72-0.5 0.48-0.83 1.23-0.33 0.74-0.32 1.77 0 1.12 0.48 2.03 0.48 0.9 1.41 1.43 0.91 0.53 2.18 0.53 0.71 0 1.26-0.19 0.56-0.2 0.98-0.5 0.44-0.31 0.72-0.66 0.22-0.17 0.43-0.17 0.22 0 0.38 0.14 0.15 0.16 0.14 0.34 0 0.22-0.2 0.39-0.6 0.69-1.57 1.19-0.97 0.5-2.11 0.5z"/>
		<path class="s0" d="m400.08 68.77h4.69q0.24 0.01 0.41 0.16 0.16 0.16 0.16 0.4 0 0.24-0.16 0.38-0.15 0.15-0.41 0.15h-4.69q-0.24-0.01-0.41-0.16-0.18-0.16-0.18-0.38 0-0.23 0.18-0.39 0.17-0.14 0.41-0.16zm2.08-2.68q0.26 0 0.44 0.18 0.18 0.17 0.18 0.39v9.52q-0.01 0.52 0.14 0.79 0.16 0.26 0.4 0.35 0.24 0.09 0.48 0.09 0.16 0 0.3-0.05 0.13-0.04 0.29-0.04 0.17 0 0.31 0.13 0.13 0.14 0.13 0.34 0 0.26-0.32 0.44-0.33 0.17-0.77 0.17-0.18 0.01-0.54-0.03-0.35-0.03-0.75-0.2-0.38-0.18-0.64-0.63-0.27-0.44-0.27-1.31v-9.57q0-0.22 0.18-0.39 0.18-0.18 0.44-0.18z"/>
		<path class="s0" d="m415.28 68.79q0.26 0 0.44 0.17 0.17 0.18 0.17 0.4v5.35q0 1.87-1.12 2.86-1.13 0.98-3.05 0.98-1.92 0-3.04-0.98-1.11-0.99-1.11-2.86v-5.35q0-0.22 0.17-0.4 0.18-0.17 0.44-0.17 0.27 0 0.44 0.17 0.18 0.18 0.18 0.4v5.35q0 1.36 0.78 2.08 0.77 0.7 2.14 0.7 1.37 0 2.17-0.7 0.77-0.71 0.77-2.08v-5.35q0-0.22 0.18-0.4 0.17-0.17 0.45-0.17z"/>
		<path class="s0" d="m419.65 78.42q-0.29 0-0.46-0.18-0.17-0.17-0.17-0.39v-8.49q0-0.22 0.17-0.4 0.18-0.17 0.44-0.17 0.27 0 0.44 0.17 0.18 0.18 0.18 0.4v2.84l-0.31 0.06q0.07-0.66 0.35-1.32 0.29-0.65 0.79-1.2 0.51-0.55 1.21-0.89 0.7-0.35 1.55-0.34 0.36 0 0.7 0.15 0.35 0.13 0.34 0.47 0 0.28-0.16 0.44-0.16 0.15-0.38 0.14-0.18 0-0.4-0.09-0.21-0.08-0.56-0.08-0.56 0-1.12 0.3-0.57 0.31-1.03 0.85-0.47 0.53-0.73 1.19-0.27 0.66-0.28 1.32v4.68q0 0.22-0.18 0.39-0.18 0.18-0.42 0.18z"/>
		<path class="s0" d="m435.24 68.73q0.27 0 0.44 0.18 0.18 0.17 0.18 0.41v8.53q0 0.22-0.18 0.39-0.18 0.18-0.42 0.18-0.29 0-0.44-0.18-0.16-0.17-0.16-0.39v-2.26l0.33-0.13q0 0.51-0.3 1.07-0.32 0.55-0.85 1.02-0.55 0.46-1.28 0.77-0.74 0.29-1.58 0.29-1.37 0-2.45-0.66-1.08-0.67-1.7-1.82-0.62-1.15-0.62-2.59c0-0.96 0.21-1.86 0.63-2.61q0.62-1.13 1.7-1.78 1.06-0.64 2.41-0.64 0.86 0 1.62 0.28 0.76 0.29 1.32 0.78 0.57 0.48 0.9 1.12 0.32 0.64 0.32 1.32l-0.42-0.28v-2.4q0-0.25 0.16-0.41 0.15-0.18 0.44-0.18zm-4.2 8.81q1.08 0 1.9-0.52 0.82-0.52 1.3-1.44 0.48-0.93 0.47-2.05-0.01-1.12-0.47-2-0.47-0.88-1.3-1.42-0.84-0.53-1.9-0.53-1.04 0-1.89 0.5-0.84 0.5-1.3 1.4-0.48 0.88-0.47 2.05c0 0.77 0.16 1.43 0.47 2.05q0.48 0.93 1.3 1.44 0.84 0.52 1.89 0.52z"/>
		<path class="s0" d="m337.67 98.09q-1.44 0-2.54-0.63-1.1-0.62-1.73-1.61-0.61-0.99-0.61-2.09 0-0.83 0.35-1.59 0.35-0.78 1.07-1.4 0.72-0.62 1.82-0.98l0.86 0.84q-1.58 0.32-2.21 1.16-0.64 0.83-0.65 1.83 0.01 0.86 0.43 1.62 0.42 0.78 1.27 1.27 0.86 0.49 2.08 0.49 1.32 0.01 2.25-0.41 0.93-0.4 1.57-1.08 0.63-0.68 1.02-1.51 0.39-0.84 0.56-1.72 0.04-0.19 0.17-0.29 0.14-0.11 0.39-0.1 0.28-0.01 0.43 0.19 0.16 0.19 0.12 0.47-0.17 1.02-0.66 2.01-0.48 0.99-1.3 1.78-0.83 0.82-2 1.28-1.17 0.48-2.69 0.47zm7.15-0.24c0 0-0.13 0-0.19-0.04q-0.09-0.04-0.18-0.07-1.23-0.9-2.37-1.76-1.14-0.85-2.27-1.83c-0.76-0.66-1.53-1.41-2.35-2.28q-0.7-0.74-1.27-1.49-0.57-0.73-0.91-1.44-0.35-0.7-0.34-1.4-0.01-0.89 0.47-1.6 0.47-0.71 1.3-1.12 0.84-0.4 2.03-0.41 1.44 0.01 2.4 0.52 0.94 0.51 1.34 1.21 0 0.01 0.05 0.13 0.05 0.11 0.05 0.24 0 0.17-0.15 0.34-0.15 0.15-0.41 0.16-0.16 0-0.28-0.06-0.11-0.07-0.17-0.16-0.4-0.55-1.06-0.93-0.66-0.37-1.76-0.38-1.23 0-1.87 0.57-0.65 0.58-0.65 1.51 0 0.58 0.34 1.22 0.34 0.66 0.88 1.32 0.53 0.67 1.11 1.29 0.81 0.86 1.7 1.66 0.9 0.81 1.78 1.51 0.87 0.7 1.67 1.27 0.78 0.57 1.39 1.01 0.13 0.09 0.2 0.21 0.07 0.11 0.06 0.26 0.01 0.16-0.14 0.35-0.14 0.2-0.41 0.21z"/>
		<path class="s0" d="m354.52 97.31c0 0.16-0.08 0.31-0.2 0.41q-0.19 0.17-0.44 0.18-0.3 0-0.47-0.18-0.17-0.17-0.16-0.41v-12.09q0-0.25 0.17-0.41 0.18-0.17 0.47-0.18 0.25 0 0.44 0.18 0.2 0.17 0.19 0.41z"/>
		<path class="s0" d="m362.85 87.99q1.33 0 2.12 0.5 0.8 0.5 1.15 1.36 0.35 0.85 0.35 1.91v5.57q0 0.22-0.18 0.39-0.18 0.18-0.42 0.18-0.28 0-0.46-0.18-0.17-0.17-0.17-0.39v-5.51q0-0.76-0.27-1.38-0.26-0.62-0.85-1-0.59-0.37-1.55-0.37-0.86 0-1.64 0.37-0.77 0.37-1.26 1-0.49 0.63-0.49 1.38v5.51q0 0.22-0.17 0.39-0.18 0.18-0.43 0.18-0.28 0-0.45-0.18-0.18-0.17-0.18-0.39v-8.49q0-0.22 0.18-0.4 0.18-0.17 0.44-0.17 0.26 0 0.44 0.17 0.17 0.18 0.17 0.4v1.6l-0.46 0.69q0.04-0.61 0.41-1.18 0.37-0.56 0.95-1.01 0.57-0.45 1.3-0.7 0.71-0.26 1.44-0.25z"/>
		<path class="s0" d="m368.98 88.25h4.69q0.23 0.01 0.41 0.16 0.15 0.16 0.16 0.4-0.01 0.23-0.16 0.38-0.15 0.15-0.41 0.15h-4.69q-0.24-0.01-0.41-0.16-0.18-0.16-0.18-0.38 0-0.23 0.18-0.39 0.17-0.14 0.41-0.16zm2.08-2.66q0.26 0 0.44 0.17 0.17 0.18 0.17 0.4v9.51q0 0.53 0.15 0.79 0.15 0.27 0.4 0.35 0.24 0.09 0.48 0.09 0.16 0 0.29-0.04 0.14-0.05 0.3-0.05 0.17 0 0.3 0.14 0.13 0.13 0.13 0.33 0.01 0.27-0.32 0.44-0.32 0.18-0.76 0.18-0.18 0.01-0.54-0.03-0.35-0.04-0.75-0.21-0.39-0.18-0.64-0.63-0.27-0.44-0.27-1.3v-9.57q0-0.22 0.18-0.4 0.17-0.17 0.44-0.17z"/>
		<path class="s0" d="m381.13 98.09q-1.56 0-2.74-0.63-1.19-0.62-1.85-1.75-0.66-1.11-0.66-2.61 0-1.6 0.67-2.75 0.69-1.14 1.76-1.76 1.08-0.62 2.29-0.62 0.89 0.01 1.73 0.3 0.83 0.28 1.49 0.88 0.66 0.57 1.06 1.4 0.4 0.84 0.44 1.94-0.02 0.22-0.21 0.38-0.18 0.16-0.42 0.16h-8.08l-0.25-1.02h7.95l-0.27 0.23v-0.38q-0.1-0.89-0.63-1.51-0.53-0.62-1.26-0.95-0.72-0.34-1.54-0.34-0.61 0-1.24 0.22-0.64 0.23-1.15 0.72-0.5 0.48-0.83 1.23-0.33 0.74-0.32 1.77 0 1.12 0.48 2.03 0.48 0.9 1.41 1.43 0.91 0.53 2.18 0.53 0.71 0 1.26-0.19 0.56-0.2 0.98-0.5 0.44-0.31 0.72-0.66 0.23-0.18 0.43-0.18 0.22 0.01 0.38 0.15 0.15 0.16 0.15 0.34-0.01 0.22-0.21 0.39-0.6 0.69-1.57 1.19-0.97 0.5-2.11 0.5z"/>
		<path class="s0" d="m388.46 97.9q-0.29 0-0.46-0.18-0.17-0.17-0.17-0.39v-8.49q0-0.22 0.17-0.4 0.18-0.17 0.44-0.17 0.26 0 0.44 0.17 0.18 0.18 0.18 0.4v2.84l-0.31 0.06q0.06-0.66 0.35-1.32 0.29-0.65 0.79-1.2 0.5-0.55 1.2-0.89 0.7-0.35 1.56-0.34 0.36 0 0.7 0.15 0.35 0.13 0.34 0.47-0.01 0.28-0.16 0.43-0.16 0.16-0.38 0.15-0.18 0-0.4-0.09-0.21-0.08-0.56-0.08-0.56 0-1.13 0.3-0.56 0.31-1.02 0.85-0.47 0.53-0.73 1.19-0.28 0.66-0.28 1.32v4.68q0 0.22-0.18 0.39-0.18 0.18-0.42 0.18z"/>
		<path class="s0" d="m396.18 86.77q-0.42 0-0.63-0.17-0.21-0.18-0.21-0.53v-0.19q0-0.34 0.24-0.53 0.23-0.17 0.63-0.17 0.39 0 0.6 0.17 0.21 0.18 0.21 0.53v0.19q-0.01 0.34-0.21 0.53-0.22 0.17-0.62 0.17zm0.61 10.56q0 0.22-0.18 0.39-0.18 0.18-0.43 0.18-0.28 0-0.43-0.18-0.16-0.17-0.17-0.39v-8.72q0-0.22 0.18-0.4 0.18-0.18 0.44-0.18 0.26 0 0.44 0.18 0.18 0.18 0.18 0.4v8.72z"/>
		<path class="s0" d="m409.52 93.05q0 1.44-0.66 2.58-0.66 1.14-1.82 1.8-1.15 0.66-2.62 0.66c-0.98 0-1.82-0.22-2.6-0.66q-1.15-0.66-1.83-1.8-0.68-1.15-0.67-2.58c0-0.96 0.22-1.85 0.67-2.6q0.68-1.14 1.83-1.8 1.17-0.66 2.6-0.66 1.44 0 2.62 0.66 1.15 0.66 1.82 1.8 0.66 1.15 0.66 2.6zm-1.22 0q-0.01-1.16-0.5-2.06-0.5-0.9-1.37-1.4-0.89-0.51-2.01-0.52c-0.75 0-1.38 0.18-1.98 0.52q-0.89 0.5-1.41 1.4-0.51 0.91-0.51 2.06 0 1.14 0.51 2.05 0.51 0.89 1.41 1.41 0.88 0.52 1.98 0.52 1.11 0 2.01-0.52 0.87-0.53 1.37-1.41 0.51-0.9 0.5-2.05z"/>
		<path class="s0" d="m412.7 97.9q-0.28 0-0.46-0.18-0.17-0.17-0.17-0.39v-8.49q0-0.22 0.17-0.4 0.18-0.17 0.44-0.17 0.27 0 0.44 0.17 0.18 0.18 0.18 0.4v2.84l-0.31 0.06q0.07-0.66 0.35-1.32 0.29-0.65 0.8-1.2 0.5-0.55 1.2-0.89 0.7-0.35 1.55-0.34 0.36 0 0.7 0.15 0.35 0.13 0.34 0.47 0 0.28-0.16 0.43-0.16 0.16-0.38 0.15-0.18 0-0.4-0.09-0.21-0.08-0.55-0.08-0.57 0-1.13 0.3-0.57 0.31-1.03 0.85-0.46 0.53-0.73 1.19-0.27 0.66-0.28 1.32v4.68q0 0.22-0.18 0.39-0.17 0.18-0.42 0.18z"/>
		<path class="s0" d="m424.51 98.09q-1.55 0-2.74-0.63-1.19-0.62-1.84-1.75-0.66-1.11-0.66-2.61-0.01-1.6 0.67-2.75 0.68-1.14 1.76-1.76 1.08-0.62 2.29-0.62 0.88 0.01 1.72 0.3 0.84 0.28 1.5 0.88 0.66 0.57 1.06 1.4 0.39 0.84 0.44 1.94-0.02 0.22-0.21 0.38-0.18 0.16-0.43 0.16h-8.07l-0.25-1.02h7.94l-0.26 0.23v-0.38q-0.11-0.89-0.63-1.51-0.53-0.62-1.26-0.95-0.73-0.34-1.54-0.34-0.61 0-1.25 0.22-0.63 0.23-1.14 0.72-0.5 0.48-0.83 1.23-0.33 0.74-0.33 1.77 0 1.12 0.49 2.03 0.48 0.9 1.4 1.43 0.92 0.53 2.19 0.53 0.7 0 1.26-0.19 0.56-0.2 0.98-0.5 0.44-0.31 0.72-0.66 0.22-0.18 0.42-0.18 0.23 0.01 0.38 0.15 0.15 0.16 0.15 0.34 0 0.22-0.2 0.39-0.6 0.69-1.57 1.19-0.97 0.5-2.11 0.5z"/>
		<path class="s0" d="m430.65 96.36q-0.16-0.22-0.14-0.44 0-0.22 0.25-0.35 0.16-0.14 0.36-0.12 0.22 0.01 0.4 0.19 0.55 0.67 1.32 1.07 0.77 0.41 1.85 0.41 0.56 0 1.11-0.17 0.55-0.18 0.92-0.56 0.36-0.37 0.37-0.94 0-0.58-0.37-0.94-0.36-0.35-0.94-0.57-0.57-0.22-1.23-0.37-0.68-0.18-1.32-0.38-0.63-0.21-1.14-0.55-0.5-0.33-0.79-0.81-0.29-0.48-0.29-1.16-0.01-0.79 0.45-1.41 0.46-0.6 1.26-0.95 0.82-0.34 1.79-0.34 0.52 0.01 1.11 0.12 0.6 0.13 1.15 0.41 0.56 0.29 1.01 0.78 0.17 0.18 0.17 0.4 0 0.21-0.2 0.41-0.16 0.11-0.37 0.1-0.22-0.01-0.35-0.16-0.48-0.52-1.14-0.77-0.67-0.24-1.44-0.24-0.59 0-1.1 0.17-0.51 0.18-0.85 0.53-0.34 0.35-0.34 0.95 0.04 0.55 0.41 0.9 0.37 0.34 0.99 0.57 0.61 0.22 1.37 0.41 0.65 0.15 1.24 0.36 0.59 0.2 1.05 0.53 0.46 0.32 0.73 0.79 0.29 0.49 0.28 1.19 0.01 0.84-0.5 1.44-0.48 0.61-1.32 0.92-0.82 0.33-1.83 0.32-1.07 0-2.11-0.39-1.01-0.4-1.8-1.32z"/>
	</g>
	<path class="s1" d="m104.76 80.37c-1.47-14.1-0.57-27.4 0.12-45.35 0.06-2.16 0-4.31 0-6.47 0.06-20.3 2.24-29.75-23.26-28.43-2.73 0.14-7.01 0.03-9.74 0.09-93.54 1.89-66.39-12.27-69.47 81.42-1.98 17.63 12.06 20.68 26.54 20.99 13.65 0.26 26.77 0.23 38.23 0.09 9.94-0.12 24.18 0.8 32.8-3.36 6.61-3.21 5.4-12.87 4.78-18.98zm-90.93-60.35c-0.03-3.95 0.71-5.54 2.38-7.63 3.14-3.96 8.48-1.89 20.14-0.93 13.39 1.09 23.78-1.4 29.82-1.64 3.3-0.12 5.95 2.67 5.68 5.95-0.86 11.26-13.01 15.69-24.9 17.61-4.04 0.63-7.99 1.73-11.71 3.44-12.58 5.78-16.97 12.15-19.93 8.74-2.07-2.39-1.29-7.04-1.5-25.54zm64.13 68.91c-9.71 0.14-19.38 1.17-29.1 0.75-5.36 0.02-12.28-0.15-28.11-0.27-4-0.03-4.46-5.41-4.66-8.34-0.3-4.32-0.73-8.65-1.25-12.96-0.36-3.07-0.69-6.65 0.6-9.7 2.38-5.57 8.53-8.19 13.59-10.76 2.76-1.39 7.21-3.66 9.59-0.47 1.29 1.73 1.95 3.87 2.36 6.12 3.68 19.89 32.21 13.98 46.04 11.84 8.13-1.26 6.33 12.06 6.88 16.83 0.56 4.76 0.58 7.78-4.79 7.31-3.72-0.32-7.43-0.4-11.15-0.35zm15.14-56.21c-0.66 15.5 1.61 19.12-1.44 22.44-2.53 2.75-6.99 2.71-10.43 2.87-7.44 0.32-15.85 1.29-23.09-0.7-4.72-1.31-9.01-4.24-11.23-8.7-0.79-1.59-2.61-4.88-2.06-6.66 1.37-4.2 10.4-1.71 20.19-6.69 8.3-4.21 15.91-13.63 15.75-23.29-0.08-4.22 10.15-4.19 11.44-1.82 1.95 3.59 1.47 7.79 0.87 22.55z"/>
	<g>
		<path class="s0" d="m166.86 32.13c-1.86 6.01-8.73 9.76-17.2 9.76-11.41 0-20.44-7.27-20.44-19.07 0-11.8 8.81-19.2 20.36-19.2 7.49 0 13.72 3.08 16.29 8.14h4.39c-2.58-7.16-10.56-11.61-20.68-11.61-14.2 0-24.62 8.66-24.62 22.67 0 14.01 10.64 22.55 24.7 22.55 10.97 0 19.58-5.15 21.38-13.24z"/>
		<path class="s0" d="m198.98 11.02c-3.86 0.06-8.37 0.97-11.23 3.77-1.2 1.17-2.93 3.47-2.96 5.23l0.13-8.26h-4.1v32.93h4.1v-15.33c0-3.9 1.03-7.93 3.72-10.85 4.62-5 17.24-6.42 17.95 2.67h3.81c0.22 0-0.28-2.43-0.33-2.62-0.41-1.95-1.2-3.68-2.77-4.97-2.36-1.95-5.32-2.61-8.32-2.57z"/>
		<path class="s0" d="m233.95 33.7h3.8c0 5.26 3.49 8.4 12.08 8.4 8.58 0 12.69-2.54 12.69-6.73 0-1.73-0.69-3.2-2.51-4.08-1.67-0.73-5.01-1.2-10.79-1.67-6.3-0.52-10.02-1.26-12.23-2.59-2.06-1.26-3.04-3.47-3.04-5.86 0-5.94 6.23-9.94 15.8-9.94 10.64 0 15.35 4.21 15.35 11.74h-3.87c0-5.81-3.65-8.6-11.32-8.6-7.13 0-11.85 2.66-11.85 6.59 0 1.6 0.52 3.27 2.43 4.08 1.9 0.86 5.54 1.33 11.02 1.86 6.46 0.6 9.19 1.07 11.55 2.2 2.36 1.2 3.58 3.53 3.58 6.14 0 6.27-6.01 9.99-16.8 9.99-11.7 0-15.89-4.8-15.89-11.53z"/>
		<path fill-rule="evenodd" class="s0" d="m295.48 11.76v3.19h-10.55v-3.19z"/>
		<path class="s0" d="m296.48 40.95v3.14c-1.04 0.34-3.4 0.81-6.07 0.81-8.44 0-12.09-4.68-12.09-11.8v-18.15h-6.54v-3.19h5.32c1.07 0 1.51-0.47 1.6-2.06l0.15-5.4h3.57v28.61c0 5.54 2.29 8.79 8.3 8.79 2.43 0 4.87-0.47 5.76-0.75z"/>
		<path class="s0" d="m354.17 24.08c0-8.19-6.46-12.87-17.02-12.87-8.76 0-14.73 3.05-15.94 8.26h4.12c1.37-3.32 5.58-5.12 11.75-5.12 8.21 0 13 3.27 13 9.47v3.06h-16.72c-9.88 0-13.53 3.87-13.53 8.53 0 6.07 5.63 9.81 13.91 9.81 5.99 0 12.47-1.69 16.39-5.2v4.8h4.04v-20.75zm-19.68 18.01c-6.47 0-10.79-2.53-10.79-6.67 0-3.53 2.65-5.8 10.02-5.8h16.35c0 0 0.06 1.64 0.06 2.18 0 8.21-6.69 10.29-15.64 10.29z"/>
		<path class="s0" d="m364.34 11.76h4.11l-0.15 9.13h0.07c2.06-6 7.69-9.68 16.64-9.68 10.03 0 15.89 4.81 15.89 13.08v20.4h-4.1v-19.74c0-6.67-4.42-10.47-12.99-10.47-9.12 0-15.35 4.87-15.35 13.34v16.87h-4.1c0 0 0-32.93-0.02-32.93z"/>
		<path class="s0" d="m444.67 28.63h-30.7c0.08 8.4 5.63 13.47 14.21 13.47 7.06 0 12.08-3.2 12.62-8.34h3.87c-0.38 7.06-6.99 11.46-16.49 11.46-11.17 0-18.31-6.41-18.31-16.74 0-10.33 7.07-17.27 18.16-17.27 10.33 0 16.64 5.47 16.64 15.41 0 0 0 1.99 0 2.01zm-3.87-3.07c0-7.27-4.87-11.19-12.62-11.19-7.76 0-13.08 4.13-14.06 11.53h26.68z"/>
		<path class="s0" d="m141.64 98.5h-17.65v-3.46h17.72c12.06 0 20.05-6.65 20.05-18.41 0-11.76-7.44-18.53-18.69-18.53h-10.26c-2.52 0-4.55 2.04-4.55 4.56v24.51h-4.27v-32.54h19.16c13.82 0 22.94 8 22.94 22 0 14-9.63 21.87-24.45 21.87z"/>
		<path class="s0" d="m308.81 52.28v20.61h-0.08c-1.67-5.07-6.91-7.87-14.96-7.87-11.17 0-18.31 6.86-18.31 16.61 0 10.67 7.07 17.4 17.93 17.4 5.83 0 11.75-1.51 15.64-6.23q1.17-1.42 2.08-3.29c1.24-2.56 1.82-5.38 1.82-8.19v-29.05h-4.11zm0 30.14c0 7.19-5.47 13.33-14.89 13.33-8.66 0-14.36-5.54-14.36-14.13 0-7.74 5.77-13.33 14.51-13.33 8.73 0 14.74 4.39 14.74 12.53z"/>
		<g>
			<path fill-rule="evenodd" class="s0" d="m309.64 11.9v32.94h-3.72v-32.94z"/>
			<path class="s0" d="m307.61 1.5h0.35c1.04 0 1.87 0.83 1.87 1.87v1.91c0 1.04-0.83 1.87-1.87 1.87h-0.35c-1.05 0-1.88-0.83-1.88-1.87v-1.92c0-1.04 0.83-1.88 1.88-1.86z"/>
		</g>
		<path class="s0" d="m208.62 77.8c0-8.19-6.46-12.87-17.01-12.87-8.77 0-14.73 3.05-15.95 8.26h4.12c1.38-3.32 5.58-5.12 11.75-5.12 8.21 0 13 3.27 13 9.47v3.06h-16.72c-9.88 0-13.53 3.87-13.53 8.53 0 6.07 5.63 9.81 13.91 9.81 6 0 12.47-1.69 16.39-5.2v4.8h4.04v-20.75zm-19.68 18c-6.47 0-10.79-2.54-10.79-6.67 0-3.53 2.65-5.81 10.03-5.81h16.34c0 0 0.06 1.65 0.06 2.19 0 8.21-6.69 10.29-15.64 10.29z"/>
		<g>
			<path fill-rule="evenodd" class="s0" d="m253.49 65.68l-16.36 31.12-2.04-3.97 13.97-27.15h4.43z"/>
			<path fill-rule="evenodd" class="s0" d="m218.69 65.68l16.9 32.95h-4.37l-17.32-32.95h4.79z"/>
		</g>
		<g>
			<path fill-rule="evenodd" class="s0" d="m223.88 11.9v32.94h-3.72v-32.94z"/>
			<path fill-rule="evenodd" class="s0" d="m221.84 1.5h0.36c1.03 0 1.87 0.84 1.87 1.87v1.92c0 1.04-0.84 1.88-1.87 1.88h-0.36c-1.03 0-1.87-0.84-1.87-1.88v-1.92c0-1.03 0.84-1.87 1.87-1.87z"/>
		</g>
		<g>
			<path fill-rule="evenodd" class="s0" d="m265.54 65.7v32.93h-3.72v-32.93z"/>
			<path class="s0" d="m263.5 55.29h0.35c1.04 0 1.88 0.83 1.88 1.87v1.92c0 1.05-0.84 1.88-1.88 1.88h-0.35c-1.04 0-1.88-0.83-1.88-1.88v-1.92c0-1.04 0.84-1.87 1.88-1.87z"/>
		</g>
	</g>
</svg>